<svg xmlns="http://www.w3.org/2000/svg" xmlns:xlink="http://www.w3.org/1999/xlink" width="139.656" height="29" viewBox="0 0 139.656 29"><defs><style>.a{fill:url(#a);}.b{fill:url(#b);}.c{fill:url(#c);}.d{fill:#00170a;fill-rule:evenodd;}</style><linearGradient id="a" y1="0.5" x2="1" y2="0.5" gradientUnits="objectBoundingBox"><stop offset="0"/><stop offset="0.537"/><stop offset="0.99" stop-color="#404041"/></linearGradient><linearGradient id="b" x1="0.154" y1="0.462" x2="0.853" y2="0.539" gradientUnits="objectBoundingBox"><stop offset="0.224" stop-color="#030303"/><stop offset="1" stop-color="#404041"/></linearGradient><linearGradient id="c" x1="0.174" y1="0.504" x2="0.988" y2="0.493" gradientUnits="objectBoundingBox"><stop offset="0"/><stop offset="0.5" stop-color="#1c1c1d"/><stop offset="1" stop-color="#404041"/></linearGradient></defs><g transform="translate(-57.583 -415.918)"><g transform="translate(57.583 415.918)"><g transform="translate(0)"><path class="a" d="M117.224,135.867h-9l4.489-17.294a6.075,6.075,0,0,1,6.045-4.206h9l-4.489,17.294A6.075,6.075,0,0,1,117.224,135.867Z" transform="translate(-95.13 -106.867)"/><path class="b" d="M81.8,115.236h-9l4.488-17.294a6.075,6.075,0,0,1,6.045-4.207h9L87.84,111.03A6.075,6.075,0,0,1,81.8,115.236Z" transform="translate(-66.113 -89.97)"/><path class="c" d="M44.859,94.431h-9L40.35,77.137A6.075,6.075,0,0,1,46.4,72.931h9L50.9,90.225A6.075,6.075,0,0,1,44.859,94.431Z" transform="translate(-35.862 -72.931)"/></g></g><g transform="translate(96.305 423.528)"><g transform="translate(0 0)"><path class="d" d="M147.143,256.375h6.568a3.416,3.416,0,0,0-6.568,0Zm5.967,4.3h4.43a8.473,8.473,0,0,1-2.944,3.7,7.023,7.023,0,0,1-4.117,1.3,7.715,7.715,0,1,1,7.557-7.531,5.9,5.9,0,0,1-.1,1.146H147.091a3.244,3.244,0,0,0,3.388,2.737A3.075,3.075,0,0,0,153.11,260.676ZM137.2,261.927h5.655v3.284H132.089v-2.971l6.1-8.209h-6.1v-3.284h10.762v3.284ZM121.2,256.375h6.567a3.415,3.415,0,0,0-6.567,0Zm5.967,4.3h4.43a8.484,8.484,0,0,1-2.945,3.7,7.023,7.023,0,0,1-4.117,1.3,7.715,7.715,0,1,1,7.557-7.531,6.013,6.013,0,0,1-.1,1.146H121.151a3.243,3.243,0,0,0,3.387,2.737A3.077,3.077,0,0,0,127.171,260.676Zm-21.57-4.3h6.566a3.415,3.415,0,0,0-6.566,0Zm5.967,4.3H116a8.482,8.482,0,0,1-2.944,3.7,7.027,7.027,0,0,1-4.119,1.3,7.715,7.715,0,1,1,7.558-7.531,5.9,5.9,0,0,1-.1,1.146H105.549a3.244,3.244,0,0,0,3.387,2.737A3.077,3.077,0,0,0,111.569,260.676Zm-11.407-9.929v14.464H96.071v-1.537h-.052a3.77,3.77,0,0,1-3.752,2.006,5.475,5.475,0,0,1-4.247-1.824c-1.147-1.434-1.3-2.476-1.3-4.456v-8.652h4.325v8c0,.99,0,2.893,2.32,2.893,1.251,0,2.475-.652,2.475-2.945v-7.948Zm-26.7,7.323a3.624,3.624,0,1,0,3.6-3.779A3.592,3.592,0,0,0,73.459,258.07Zm11.414-7.323v19.286H80.548v-6.308H80.5a4.912,4.912,0,0,1-4.379,1.955c-4.091,0-6.984-3.283-6.984-7.426,0-5,3.31-8,7.27-8a4.682,4.682,0,0,1,4.274,2.084h.052v-1.59Zm-16.436,4.065H64.189c-.026-.313-.077-1.094-1.354-1.094-.913,0-1.226.573-1.226.964,0,.781,1.069,1.225,2.215,1.563,2.45.678,5.057,1.407,5.057,4.535,0,3.048-2.685,4.925-5.89,4.925-2.189,0-5.5-.99-5.889-4.8h4.3a1.538,1.538,0,0,0,1.642,1.329c.73,0,1.511-.417,1.511-1.12,0-1.121-1.068-1.252-3.831-2.32-1.876-.6-3.44-1.824-3.44-3.779,0-2.867,2.606-4.769,5.6-4.769C64.788,250.252,68.072,251.007,68.437,254.812Z" transform="translate(-57.102 -250.252)"/></g></g></g></svg>