<svg xmlns="http://www.w3.org/2000/svg" width="6.555" height="8.012" viewBox="0 0 6.555 8.012"><defs><style>.a{fill:#00170a;}</style></defs><path class="a" d="M42.944,3.8a.527.527,0,0,0-.387-.159h-.182V2.549a2.453,2.453,0,0,0-.751-1.8,2.528,2.528,0,0,0-3.6,0,2.453,2.453,0,0,0-.751,1.8V3.642h-.182a.544.544,0,0,0-.546.546V7.466a.544.544,0,0,0,.546.546h5.463a.544.544,0,0,0,.546-.546V4.188A.526.526,0,0,0,42.944,3.8Zm-1.661-.159H38.369V2.549a1.4,1.4,0,0,1,.427-1.03,1.456,1.456,0,0,1,2.06,0,1.4,1.4,0,0,1,.427,1.03Z" transform="translate(-36.548)"/></svg>